<svg viewBox="0 0 640 512" xmlns="http://www.w3.org/2000/svg" xmlns:xlink="http://www.w3.org/1999/xlink" overflow="hidden"><path d="M176 256C220.11 256 256 220.11 256 176 256 131.89 220.11 96 176 96 131.89 96 96 131.89 96 176 96 220.11 131.89 256 176 256ZM528 128 304 128C295.16 128 288 135.16 288 144L288 288 64 288 64 80C64 71.16 56.84 64 48 64L16 64C7.16 64 0 71.16 0 80L0 432C0 440.84 7.16 448 16 448L48 448C56.84 448 64 440.84 64 432L64 384 576 384 576 432C576 440.84 583.16 448 592 448L624 448C632.84 448 640 440.84 640 432L640 240C640 178.14 589.86 128 528 128Z" fill="#FFFFFF"/></svg>