<svg viewBox="0 0 640 512" xmlns="http://www.w3.org/2000/svg" xmlns:xlink="http://www.w3.org/1999/xlink" overflow="hidden"><path d="M544 192 528 192 419.22 56.02C407.071 40.8398 388.683 32.0024 369.24 32L155.33 32C129.16 32 105.63 47.93 95.91 72.23L48 194.26C20.44 201.4 0 226.21 0 256L0 368C0 376.84 7.16 384 16 384L64 384C64 437.02 106.98 480 160 480 213.02 480 256 437.02 256 384L384 384C384 437.02 426.98 480 480 480 533.02 480 576 437.02 576 384L624 384C632.84 384 640 376.84 640 368L640 288C640 234.98 597.02 192 544 192ZM160 432C133.53 432 112 410.47 112 384 112 357.53 133.53 336 160 336 186.47 336 208 357.53 208 384 208 410.47 186.47 432 160 432ZM232 192 116.93 192 155.33 96 232 96 232 192ZM280 192 280 96 369.24 96 446.04 192 280 192ZM480 432C453.53 432 432 410.47 432 384 432 357.53 453.53 336 480 336 506.47 336 528 357.53 528 384 528 410.47 506.47 432 480 432Z" fill="#FFFFFF"/></svg>