<svg viewBox="0 0 576 512" xmlns="http://www.w3.org/2000/svg" xmlns:xlink="http://www.w3.org/1999/xlink" overflow="hidden"><path d="M298.06 224 448 277.55 448 496C448 504.837 440.837 512 432 512L368 512C359.163 512 352 504.837 352 496L352 384 192 384 192 496C192 504.837 184.837 512 176 512L112 512C103.163 512 96 504.837 96 496L96 282.09C58.84 268.84 32 233.66 32 192 32 174.327 46.3269 160 64 160 81.6731 160 96 174.327 96 192 96.033 209.659 110.341 223.967 128 224ZM544 112 544 144C544 179.346 515.346 208 480 208L448 208 448 243.58 320 197.87 320 48C320 33.75 337.22 26.61 347.31 36.69L374.59 64 428.22 64C439.13 64 451.97 71.92 456.84 81.69L464 96 528 96C536.837 96 544 103.163 544 112ZM432 112C432 103.163 424.837 96 416 96 407.163 96 400 103.163 400 112 400 120.837 407.163 128 416 128 424.837 128 432 120.837 432 112Z" fill="#FFFFFF"/></svg>