<svg viewBox="0 0 640 512" xmlns="http://www.w3.org/2000/svg" xmlns:xlink="http://www.w3.org/1999/xlink" overflow="hidden"><path d="M480.07 96 160 96C71.6344 95.9874-0.0102301 167.612-0.0228516 255.977-0.0354731 344.343 71.5887 415.987 159.954 416 202.952 416.006 244.142 398.706 274.24 368L365.76 368C427.616 431.106 528.917 432.119 592.023 370.263 655.129 308.407 656.142 207.106 594.286 144 564.205 113.311 523.043 96.0127 480.07 96ZM248 268C248 274.627 242.627 280 236 280L184 280 184 332C184 338.627 178.627 344 172 344L148 344C141.373 344 136 338.627 136 332L136 280 84 280C77.3726 280 72 274.627 72 268L72 244C72 237.373 77.3726 232 84 232L136 232 136 180C136 173.373 141.373 168 148 168L172 168C178.627 168 184 173.373 184 180L184 232 236 232C242.627 232 248 237.373 248 244ZM464 344C441.909 344 424 326.091 424 304 424 281.909 441.909 264 464 264 486.091 264 504 281.909 504 304 504 326.091 486.091 344 464 344ZM528 248C505.909 248 488 230.091 488 208 488 185.909 505.909 168 528 168 550.091 168 568 185.909 568 208 568 230.091 550.091 248 528 248Z" fill="#FFFFFF"/></svg>